<svg enable-background="new 0 0 450.1 122.8" viewBox="0 0 450.1 122.8" xmlns="http://www.w3.org/2000/svg" xmlns:xlink="http://www.w3.org/1999/xlink"><linearGradient id="a" gradientTransform="matrix(.9806 .1959 -.1959 .9806 -68.666 353.4392)" gradientUnits="userSpaceOnUse" x1="117.4496" x2="83.2595" y1="-353.1105" y2="-247.8844"><stop offset="0" stop-color="#839bcf"/><stop offset=".2607" stop-color="#8199cc"/><stop offset=".4283" stop-color="#7991c4"/><stop offset=".5697" stop-color="#6b85b5"/><stop offset=".6965" stop-color="#5873a0"/><stop offset=".8124" stop-color="#405c85"/><stop offset=".8873" stop-color="#2c496f"/></linearGradient><linearGradient id="b" gradientTransform="matrix(.9806 .1959 -.1959 .9806 -68.666 353.4392)" gradientUnits="userSpaceOnUse" x1="52.7824" x2="22.4007" y1="-360.7082" y2="-280.2267"><stop offset="0" stop-color="#fff200"/><stop offset="1" stop-color="#ffc10e"/></linearGradient><path d="m30.7 120.6 1.6 1 4.1-7 3.8 6.6 3.7-3.1-4.7-8.3 2.1-3.7 5.4 9.6 3.7-3.1-6.3-11.2 7.7-13.1 2.8 7.9 6.5-5.3v7.1l-10.1 8.2 2.3 4.1 7.7-6.3v5.6h4.7v-5.6l7.6 6.4 2.4-4.1-10-8.4v-7.1l6.4 5.4 2.9-7.8 7.5 13.2-6.5 11.1 3.6 3.2 5.6-9.5 2.1 3.7-4.8 8.2 3.7 3.1 3.8-6.6 4 7.1 4.2-2.4-4-7.1 7.6.1-.8-4.8-9.5-.1-2.1-3.7 11 .1-.9-4.7-12.9-.1-7.5-13.2 8.2 1.5-1.4-8.3 6.1 3.6 2.1 12.8h4.7l-1.2-9.6 4.8 2.8 2.4-4.1-4.8-2.8 9.3-3.4-2.3-4.1-12.3 4.4-6.1-3.6 7.9-2.8-5.3-6.5 15.2.1 6.4 11.2 4.5-1.6-5.5-9.6h4.2l4.7 8.3 4.6-1.6-3.8-6.6 8.1.1v-4.8h-8.1l3.9-6.6-4.5-1.7-4.8 8.2h-4.2l5.6-9.5-4.5-1.6-6.6 11.1-15.2-.1 5.4-6.4-7.8-3 6.1-3.5 12.2 4.6 2.4-4.1-9.3-3.5 4.9-2.8-2.3-4.1-4.9 2.8 1.8-9.8h-4.7l-2.3 12.8-6.1 3.5 1.5-8.3-8.2 1.4 7.7-13.1h12.9l.9-4.7-11-.1 2.2-3.6 9.5.1.9-4.8h-7.6l4.1-7-1.6-1zm45.9-74.6 5.6-.9-1 5.6-10.9 6.2zm-21.7 37.1 6.4-10.9-.1 12.6-4.4 3.6zm28.6-28.3 5.3 2-3.6 4.3-12.6-.1zm-17.6 30 .1-12.6 6.2 11-2 5.3zm19.2-18.9 3.6 4.4-5.3 1.9-10.9-6.4zm-8.7 14.9-6.2-10.9 10.8 6.3.9 5.6z" fill="url(#a)"/><path d="m53.7 36.7c-13.6 3.5-21.8 17.5-18.2 31.1 1.8 7 6.4 12.5 12.2 15.8l25.8-44c-5.8-3.4-12.8-4.7-19.8-2.9zm-8.2 50.7c-6.8-3.8-12.1-10.3-14.2-18.5-4.2-15.9 5.3-32.2 21.3-36.4 8.1-2.1 16.4-.7 23 3.4l18.2-30.9c-9.5 1.3-15.8 9.9-17.2 19-.4 2.6-2 4-3.8 3.5s-1.4-3-.9-4.5c1-2.8 1-10.7-4-14.6-1.6-1.2-2.5-1.2-2 1 1.2 4.9-.2 7.3-2.8 9.5-1.4 1.2-3.2 3.5-3.1 5.8 0 1.8-1 1.9-2.2 1.2-1.2-.8-2-3.4-1-7.1 1.8-6.4-2.6-15-8-17.5-3-1.4-2.6.1-2 1.9 2.2 6.1 1.7 9.2-1.3 13.7-3.5 5.3-3 8.1-.9 10.6 1.3 1.6-.6 3-1.9.6-1-1.9-3.1-4.5-5.2-5.3-2.2-.8-3.5-3.2-3.6-6.2 0-2.4-1.3-2-2.2-.6-1.5 2.1-2.6 6.3-1.3 10.3.9 2.8 2.8 5.1 4.8 6.3 1.4.8 1.6 2 .9 2.7-1 1-3.4.2-4.3-1.1-2.8-4.3-5.5-5.7-11.7-4.8-4.3.7-9.3-.3-13.3-4.5-2-2.1-3.5-1.4-3.3 1.5.6 10.3 9.7 18 19.2 19.1 2.6.3 4.3 1.4 3.8 3.2-.4 1.3-2.4 1.9-4.9 1-2.8-1-10.7-1-14.6 4-1.2 1.6-1.2 2.5 1 2 4.9-1.2 7.5.1 9.5 2.8 1.3 1.8 2.6 3.5 5.4 3.9 2.6.3 2.6 2.2-.1 2.3-3.5.1-6.3 1.1-8.8 6-2.5 4.8-4.9 6.7-11.3 7.8-1.9.1-3.3.5-.6 2.5 4.8 3.5 14.5 3.1 19.2-1.5 2.7-2.7 5.5-3.3 6.7-2.6 1.2.6 1.1 1.9-.6 2.2-2.4.5-4.5 2.4-5.4 4.4-1.2 2.3-4 4.4-6.7 4.1-2.4-.2-2 1.3-.6 2.2 2.1 1.5 6.3 2.6 10.4 1.3 2.8-.9 5.1-2.8 6.3-4.8.8-1.4 3-1.8 3.3-.3s-.4 2.8-1.8 3.7c-4.3 2.8-5.7 5.5-4.8 11.7.7 4.3-.3 9.3-4.5 13.3-2.1 2-1.4 3.5 1.5 3.3.9-.1 1.8-.2 2.7-.4z" fill="url(#b)"/><g fill="#2c496f"><path d="m176 94.3h-19.4l-2.5 15.8h-21.6l21-97.8h25.5l21 97.8h-21.6zm-16.9-19.4h14.4l-7.2-43.1z"/><path d="m196.8 61.3c0-29.6 10.3-50.6 33.3-50.6 17.6 0 23.5 14.1 26.7 25.2l-17.6 6.5c-1.6-7.5-3.8-12-9.1-12-7.9 0-10.6 12.6-10.6 30.9s2.6 30.9 10.6 30.9c5.7 0 8.2-6 9.2-13.9l17.6 6.3c-2.8 11.6-8.7 27.3-26.8 27.3-23 0-33.3-21.1-33.3-50.6z"/><path d="m259.1 61.3c0-29.6 10.3-50.6 33.3-50.6 17.6 0 23.5 14.1 26.7 25.2l-17.6 6.5c-1.6-7.5-3.8-12-9.1-12-7.9 0-10.6 12.6-10.6 30.9s2.6 30.9 10.6 30.9c5.7 0 8.2-6 9.2-13.9l17.6 6.3c-2.8 11.6-8.7 27.3-26.8 27.3-23 0-33.3-21.1-33.3-50.6z"/><path d="m362.4 94.3h-19.4l-2.5 15.8h-21.6l21-97.8h25.5l21 97.8h-21.6zm-16.9-19.4h14.4l-7.2-43.1z"/><path d="m389.9 12.3h29.5c20.4 0 29.8 15 29.8 31.8 0 16.9-9.4 31.7-29.8 31.7h-7.3v34.3h-22.1v-97.8zm27 19.4h-4.8v24.8h4.8c6 0 9.7-4.8 9.7-12.5 0-7.5-3.7-12.3-9.7-12.3z"/></g></svg>